<mxfile host="Electron" agent="Mozilla/5.0 (Windows NT 10.0; Win64; x64) AppleWebKit/537.36 (KHTML, like Gecko) draw.io/26.2.2 Chrome/134.0.6998.178 Electron/35.1.2 Safari/537.36" version="26.2.2">
  <diagram name="Page-1" id="RORKlbrSL4KDW8b_ythM">
    <mxGraphModel dx="1943" dy="1816" grid="1" gridSize="10" guides="1" tooltips="1" connect="1" arrows="1" fold="1" page="1" pageScale="1" pageWidth="850" pageHeight="1100" math="0" shadow="0">
      <root>
        <mxCell id="0" />
        <mxCell id="1" parent="0" />
        <mxCell id="4qMBwd5joX9XYVFzXBw5-1" value="" style="rounded=0;whiteSpace=wrap;html=1;fillColor=none;dashed=1;" vertex="1" parent="1">
          <mxGeometry x="-290" y="-80" width="190" height="680" as="geometry" />
        </mxCell>
        <mxCell id="4qMBwd5joX9XYVFzXBw5-2" value="&lt;pre&gt;&lt;font style=&quot;font-size: 24.04px;&quot;&gt;Sources&lt;/font&gt;&lt;/pre&gt;" style="rounded=0;whiteSpace=wrap;html=1;strokeColor=none;" vertex="1" parent="1">
          <mxGeometry x="-240" y="-90" width="95" height="20" as="geometry" />
        </mxCell>
        <mxCell id="4qMBwd5joX9XYVFzXBw5-3" value="" style="rounded=0;whiteSpace=wrap;html=1;dashed=1;" vertex="1" parent="1">
          <mxGeometry x="-70" y="-80" width="690" height="680" as="geometry" />
        </mxCell>
        <mxCell id="4qMBwd5joX9XYVFzXBw5-4" value="&lt;font style=&quot;font-size: 20px;&quot;&gt;Data Warehouse&lt;/font&gt;" style="rounded=0;whiteSpace=wrap;html=1;strokeColor=none;" vertex="1" parent="1">
          <mxGeometry x="230" y="-110" width="120" height="60" as="geometry" />
        </mxCell>
        <mxCell id="4qMBwd5joX9XYVFzXBw5-5" value="" style="rounded=0;whiteSpace=wrap;html=1;fillColor=none;dashed=1;" vertex="1" parent="1">
          <mxGeometry x="630" y="-90" width="180" height="690" as="geometry" />
        </mxCell>
        <mxCell id="4qMBwd5joX9XYVFzXBw5-6" value="&lt;pre&gt;&lt;font style=&quot;font-size: 24.04px;&quot;&gt;consumers&lt;/font&gt;&lt;/pre&gt;" style="rounded=0;whiteSpace=wrap;html=1;strokeColor=none;" vertex="1" parent="1">
          <mxGeometry x="667.5" y="-100" width="95" height="20" as="geometry" />
        </mxCell>
        <mxCell id="4qMBwd5joX9XYVFzXBw5-10" value="&lt;b&gt;&lt;font style=&quot;color: rgb(0, 0, 0); font-size: 19px;&quot;&gt;Silver Layer&lt;/font&gt;&lt;/b&gt;" style="rounded=0;whiteSpace=wrap;html=1;fillColor=light-dark(#dae8fc, #c0c0c0);strokeColor=#6c8ebf;" vertex="1" parent="1">
          <mxGeometry x="165" y="-40" width="185" height="30" as="geometry" />
        </mxCell>
        <mxCell id="4qMBwd5joX9XYVFzXBw5-11" value="&lt;b&gt;&lt;font style=&quot;font-size: 19px;&quot;&gt;Bronze Layer&lt;/font&gt;&lt;/b&gt;" style="rounded=0;whiteSpace=wrap;html=1;fillColor=light-dark(#fa6800, #cd7f32);fontColor=#000000;strokeColor=#C73500;" vertex="1" parent="1">
          <mxGeometry x="-60" y="-40" width="180" height="30" as="geometry" />
        </mxCell>
        <mxCell id="4qMBwd5joX9XYVFzXBw5-12" value="" style="rounded=0;whiteSpace=wrap;html=1;strokeColor=light-dark(#000000,#F3F2E1);" vertex="1" parent="1">
          <mxGeometry x="-60" width="190" height="560" as="geometry" />
        </mxCell>
        <mxCell id="4qMBwd5joX9XYVFzXBw5-14" value="&lt;font style=&quot;font-size: 19px;&quot;&gt;&lt;b style=&quot;&quot;&gt;Gold&lt;span style=&quot;background-color: transparent;&quot;&gt;&amp;nbsp;Layer&lt;/span&gt;&lt;/b&gt;&lt;/font&gt;" style="rounded=0;whiteSpace=wrap;html=1;fillColor=#f0a30a;fontColor=#000000;strokeColor=#BD7000;" vertex="1" parent="1">
          <mxGeometry x="395" y="-40" width="185" height="30" as="geometry" />
        </mxCell>
        <mxCell id="4qMBwd5joX9XYVFzXBw5-15" value="&lt;font style=&quot;font-size: 15px;&quot;&gt;CRM&lt;/font&gt;" style="image;aspect=fixed;html=1;points=[];align=center;fontSize=12;image=img/lib/azure2/general/Folder_Blank.svg;" vertex="1" parent="1">
          <mxGeometry x="-235" y="150" width="54.5" height="44.23" as="geometry" />
        </mxCell>
        <mxCell id="4qMBwd5joX9XYVFzXBw5-16" value="" style="image;aspect=fixed;html=1;points=[];align=center;fontSize=12;image=img/lib/azure2/general/File.svg;" vertex="1" parent="1">
          <mxGeometry x="-195" y="170" width="24.35" height="30" as="geometry" />
        </mxCell>
        <mxCell id="4qMBwd5joX9XYVFzXBw5-18" value="&lt;font style=&quot;font-size: 15px;&quot;&gt;ERP&lt;/font&gt;" style="image;aspect=fixed;html=1;points=[];align=center;fontSize=12;image=img/lib/azure2/general/Folder_Blank.svg;" vertex="1" parent="1">
          <mxGeometry x="-235" y="280" width="54.5" height="44.23" as="geometry" />
        </mxCell>
        <mxCell id="4qMBwd5joX9XYVFzXBw5-19" value="" style="image;aspect=fixed;html=1;points=[];align=center;fontSize=12;image=img/lib/azure2/general/File.svg;" vertex="1" parent="1">
          <mxGeometry x="-195" y="300" width="24.35" height="30" as="geometry" />
        </mxCell>
        <mxCell id="4qMBwd5joX9XYVFzXBw5-20" value="" style="endArrow=none;html=1;rounded=0;" edge="1" parent="1">
          <mxGeometry width="50" height="50" relative="1" as="geometry">
            <mxPoint x="-251.5" y="360" as="sourcePoint" />
            <mxPoint x="-164" y="360" as="targetPoint" />
            <Array as="points" />
          </mxGeometry>
        </mxCell>
        <mxCell id="4qMBwd5joX9XYVFzXBw5-22" value="" style="rounded=0;whiteSpace=wrap;html=1;strokeColor=light-dark(#000000,#F3F2E1);" vertex="1" parent="1">
          <mxGeometry x="165" width="195" height="560" as="geometry" />
        </mxCell>
        <mxCell id="4qMBwd5joX9XYVFzXBw5-23" value="" style="rounded=0;whiteSpace=wrap;html=1;strokeColor=light-dark(#000000,#F3F2E1);" vertex="1" parent="1">
          <mxGeometry x="390" width="190" height="560" as="geometry" />
        </mxCell>
        <mxCell id="4qMBwd5joX9XYVFzXBw5-27" value="&lt;font style=&quot;font-size: 14px;&quot;&gt;&lt;b style=&quot;&quot;&gt;Object Type&lt;/b&gt;: CSV File&lt;/font&gt;" style="text;strokeColor=none;fillColor=none;align=left;verticalAlign=middle;spacingLeft=4;spacingRight=4;overflow=hidden;points=[[0,0.5],[1,0.5]];portConstraint=eastwest;rotatable=0;whiteSpace=wrap;html=1;" vertex="1" parent="1">
          <mxGeometry x="-285" y="370" width="160" height="30" as="geometry" />
        </mxCell>
        <mxCell id="4qMBwd5joX9XYVFzXBw5-28" value="&lt;font style=&quot;font-size: 16px;&quot;&gt;&lt;b style=&quot;&quot;&gt;Interface&lt;/b&gt;: File in Folder&lt;/font&gt;" style="text;strokeColor=none;fillColor=none;align=left;verticalAlign=middle;spacingLeft=4;spacingRight=4;overflow=hidden;points=[[0,0.5],[1,0.5]];portConstraint=eastwest;rotatable=0;whiteSpace=wrap;html=1;" vertex="1" parent="1">
          <mxGeometry x="-284.83000000000004" y="390" width="159.83" height="40" as="geometry" />
        </mxCell>
        <mxCell id="4qMBwd5joX9XYVFzXBw5-29" value="" style="html=1;verticalLabelPosition=bottom;align=center;labelBackgroundColor=#ffffff;verticalAlign=top;strokeWidth=2;strokeColor=#b46504;shadow=0;dashed=0;shape=mxgraph.ios7.icons.data;fillColor=#fad7ac;" vertex="1" parent="1">
          <mxGeometry x="-5" y="30" width="70" height="99.1" as="geometry" />
        </mxCell>
        <mxCell id="4qMBwd5joX9XYVFzXBw5-30" value="" style="html=1;verticalLabelPosition=bottom;align=center;labelBackgroundColor=#ffffff;verticalAlign=top;strokeWidth=2;strokeColor=#56517e;shadow=0;dashed=0;shape=mxgraph.ios7.icons.data;fillColor=#d0cee2;" vertex="1" parent="1">
          <mxGeometry x="227.5" y="30" width="70" height="99.1" as="geometry" />
        </mxCell>
        <mxCell id="4qMBwd5joX9XYVFzXBw5-31" value="" style="html=1;verticalLabelPosition=bottom;align=center;labelBackgroundColor=#ffffff;verticalAlign=top;strokeWidth=2;strokeColor=#d79b00;shadow=0;dashed=0;shape=mxgraph.ios7.icons.data;fillColor=#ffcd28;gradientColor=#ffa500;" vertex="1" parent="1">
          <mxGeometry x="450" y="30" width="70" height="99.1" as="geometry" />
        </mxCell>
        <mxCell id="4qMBwd5joX9XYVFzXBw5-33" value="" style="html=1;shadow=0;dashed=0;align=center;verticalAlign=middle;shape=mxgraph.arrows2.arrow;dy=0.74;dx=27.86;notch=0;fillColor=#dae8fc;gradientColor=#7ea6e0;strokeColor=#6c8ebf;" vertex="1" parent="1">
          <mxGeometry x="-145" y="181.82000000000002" width="80" height="35.45" as="geometry" />
        </mxCell>
        <mxCell id="4qMBwd5joX9XYVFzXBw5-35" value="" style="html=1;shadow=0;dashed=0;align=center;verticalAlign=middle;shape=mxgraph.arrows2.arrow;dy=0.74;dx=27.86;notch=0;fillColor=#dae8fc;gradientColor=#7ea6e0;strokeColor=#6c8ebf;" vertex="1" parent="1">
          <mxGeometry x="110" y="181.82000000000002" width="80" height="35.45" as="geometry" />
        </mxCell>
        <mxCell id="4qMBwd5joX9XYVFzXBw5-36" value="" style="html=1;shadow=0;dashed=0;align=center;verticalAlign=middle;shape=mxgraph.arrows2.arrow;dy=0.74;dx=27.86;notch=0;fillColor=#dae8fc;gradientColor=#7ea6e0;strokeColor=#6c8ebf;" vertex="1" parent="1">
          <mxGeometry x="330" y="194.23000000000002" width="80" height="35.45" as="geometry" />
        </mxCell>
        <mxCell id="4qMBwd5joX9XYVFzXBw5-39" value="" style="html=1;shadow=0;dashed=0;align=center;verticalAlign=middle;shape=mxgraph.arrows2.arrow;dy=0.74;dx=27.86;notch=0;fillColor=#dae8fc;gradientColor=#7ea6e0;strokeColor=#6c8ebf;" vertex="1" parent="1">
          <mxGeometry x="570" y="181.82000000000002" width="80" height="35.45" as="geometry" />
        </mxCell>
        <mxCell id="4qMBwd5joX9XYVFzXBw5-40" value="&lt;font style=&quot;font-size: 15px;&quot;&gt;&lt;b&gt;Raw Data&lt;/b&gt;&lt;/font&gt;" style="text;strokeColor=none;fillColor=none;align=left;verticalAlign=middle;spacingLeft=4;spacingRight=4;overflow=hidden;points=[[0,0.5],[1,0.5]];portConstraint=eastwest;rotatable=0;whiteSpace=wrap;html=1;" vertex="1" parent="1">
          <mxGeometry x="-10" y="150" width="80" height="30" as="geometry" />
        </mxCell>
        <mxCell id="4qMBwd5joX9XYVFzXBw5-41" value="&lt;font style=&quot;font-size: 15px;&quot;&gt;&lt;b&gt;Cleaned,&lt;/b&gt;&lt;/font&gt;&lt;div&gt;&lt;b style=&quot;font-size: 15px; background-color: transparent; color: light-dark(rgb(0, 0, 0), rgb(255, 255, 255));&quot;&gt;Standarised&lt;/b&gt;&lt;div&gt;&lt;div&gt;&lt;font style=&quot;font-size: 15px;&quot;&gt;&lt;b&gt;Data&lt;/b&gt;&lt;/font&gt;&lt;/div&gt;&lt;/div&gt;&lt;/div&gt;" style="text;strokeColor=none;fillColor=none;align=left;verticalAlign=middle;spacingLeft=4;spacingRight=4;overflow=hidden;points=[[0,0.5],[1,0.5]];portConstraint=eastwest;rotatable=0;whiteSpace=wrap;html=1;" vertex="1" parent="1">
          <mxGeometry x="210" y="124.22999999999999" width="160" height="70" as="geometry" />
        </mxCell>
        <mxCell id="4qMBwd5joX9XYVFzXBw5-42" value="&lt;font style=&quot;font-size: 15px;&quot;&gt;&lt;b&gt;Business Ready Data&lt;/b&gt;&lt;/font&gt;" style="text;strokeColor=none;fillColor=none;align=left;verticalAlign=middle;spacingLeft=4;spacingRight=4;overflow=hidden;points=[[0,0.5],[1,0.5]];portConstraint=eastwest;rotatable=0;whiteSpace=wrap;html=1;" vertex="1" parent="1">
          <mxGeometry x="425" y="142.11" width="160" height="60" as="geometry" />
        </mxCell>
        <mxCell id="4qMBwd5joX9XYVFzXBw5-43" value="" style="endArrow=none;html=1;rounded=0;" edge="1" parent="1">
          <mxGeometry width="50" height="50" relative="1" as="geometry">
            <mxPoint x="-13.75" y="198.83" as="sourcePoint" />
            <mxPoint x="73.75" y="198.83" as="targetPoint" />
            <Array as="points" />
          </mxGeometry>
        </mxCell>
        <mxCell id="4qMBwd5joX9XYVFzXBw5-44" value="" style="endArrow=none;html=1;rounded=0;" edge="1" parent="1">
          <mxGeometry width="50" height="50" relative="1" as="geometry">
            <mxPoint x="210" y="200" as="sourcePoint" />
            <mxPoint x="297.5" y="200" as="targetPoint" />
            <Array as="points" />
          </mxGeometry>
        </mxCell>
        <mxCell id="4qMBwd5joX9XYVFzXBw5-45" value="" style="endArrow=none;html=1;rounded=0;" edge="1" parent="1">
          <mxGeometry width="50" height="50" relative="1" as="geometry">
            <mxPoint x="450" y="198.83" as="sourcePoint" />
            <mxPoint x="537.5" y="198.83" as="targetPoint" />
            <Array as="points" />
          </mxGeometry>
        </mxCell>
        <mxCell id="4qMBwd5joX9XYVFzXBw5-49" value="&lt;b&gt;&lt;font style=&quot;font-size: 14px;&quot;&gt;Object Type :Table&lt;/font&gt;&lt;/b&gt;" style="text;strokeColor=none;fillColor=none;align=left;verticalAlign=middle;spacingLeft=4;spacingRight=4;overflow=hidden;points=[[0,0.5],[1,0.5]];portConstraint=eastwest;rotatable=0;whiteSpace=wrap;html=1;" vertex="1" parent="1">
          <mxGeometry x="-40" y="217.26999999999998" width="140" height="30" as="geometry" />
        </mxCell>
        <mxCell id="4qMBwd5joX9XYVFzXBw5-50" value="&lt;b&gt;&lt;font style=&quot;font-size: 14px;&quot;&gt;Load :&lt;/font&gt;&lt;/b&gt;&lt;div style=&quot;&quot;&gt;&lt;span style=&quot;font-size: 14px;&quot;&gt;1.Batch Processing&lt;/span&gt;&lt;/div&gt;&lt;div style=&quot;&quot;&gt;&lt;span style=&quot;font-size: 14px; background-color: transparent; color: light-dark(rgb(0, 0, 0), rgb(255, 255, 255));&quot;&gt;2.Full Load&lt;/span&gt;&lt;/div&gt;&lt;div style=&quot;&quot;&gt;&lt;span style=&quot;font-size: 14px;&quot;&gt;3. Truncate &amp;amp; Insert&lt;/span&gt;&lt;/div&gt;&lt;div style=&quot;&quot;&gt;&lt;span style=&quot;font-size: 14px;&quot;&gt;&lt;br&gt;&lt;/span&gt;&lt;/div&gt;" style="text;strokeColor=none;fillColor=none;align=left;verticalAlign=middle;spacingLeft=4;spacingRight=4;overflow=hidden;points=[[0,0.5],[1,0.5]];portConstraint=eastwest;rotatable=0;whiteSpace=wrap;html=1;" vertex="1" parent="1">
          <mxGeometry x="-50" y="260" width="160" height="90" as="geometry" />
        </mxCell>
        <mxCell id="4qMBwd5joX9XYVFzXBw5-51" value="&lt;span style=&quot;font-size: 14px;&quot;&gt;&lt;b&gt;Transformations: NO&lt;/b&gt;&lt;/span&gt;" style="text;strokeColor=none;fillColor=none;align=left;verticalAlign=middle;spacingLeft=4;spacingRight=4;overflow=hidden;points=[[0,0.5],[1,0.5]];portConstraint=eastwest;rotatable=0;whiteSpace=wrap;html=1;" vertex="1" parent="1">
          <mxGeometry x="-45" y="360" width="160" height="30" as="geometry" />
        </mxCell>
        <mxCell id="4qMBwd5joX9XYVFzXBw5-52" value="&lt;b&gt;&lt;font style=&quot;font-size: 14px;&quot;&gt;Data Model :None(as is)&lt;/font&gt;&lt;/b&gt;" style="text;strokeColor=none;fillColor=none;align=left;verticalAlign=middle;spacingLeft=4;spacingRight=4;overflow=hidden;points=[[0,0.5],[1,0.5]];portConstraint=eastwest;rotatable=0;whiteSpace=wrap;html=1;" vertex="1" parent="1">
          <mxGeometry x="-57.5" y="400" width="175" height="30" as="geometry" />
        </mxCell>
        <mxCell id="4qMBwd5joX9XYVFzXBw5-53" value="&lt;b&gt;&lt;font style=&quot;font-size: 14px;&quot;&gt;Object Type :Table&lt;/font&gt;&lt;/b&gt;" style="text;strokeColor=none;fillColor=none;align=left;verticalAlign=middle;spacingLeft=4;spacingRight=4;overflow=hidden;points=[[0,0.5],[1,0.5]];portConstraint=eastwest;rotatable=0;whiteSpace=wrap;html=1;" vertex="1" parent="1">
          <mxGeometry x="187.5" y="219.99999999999997" width="140" height="30" as="geometry" />
        </mxCell>
        <mxCell id="4qMBwd5joX9XYVFzXBw5-54" value="&lt;b&gt;&lt;font style=&quot;font-size: 14px;&quot;&gt;Load :&lt;/font&gt;&lt;/b&gt;&lt;div style=&quot;text-align: center;&quot;&gt;&lt;span style=&quot;font-size: 14px;&quot;&gt;1.Batch Processing&lt;/span&gt;&lt;/div&gt;&lt;div style=&quot;text-align: center;&quot;&gt;&lt;span style=&quot;font-size: 14px;&quot;&gt;2.Full Load(Trunc &amp;amp; Insert)&lt;/span&gt;&lt;/div&gt;&lt;div style=&quot;text-align: center;&quot;&gt;&lt;span style=&quot;font-size: 14px;&quot;&gt;3. Truncate &amp;amp; Insert&lt;/span&gt;&lt;/div&gt;&lt;div style=&quot;text-align: center;&quot;&gt;&lt;span style=&quot;font-size: 14px;&quot;&gt;&lt;br&gt;&lt;/span&gt;&lt;/div&gt;" style="text;strokeColor=none;fillColor=none;align=left;verticalAlign=middle;spacingLeft=4;spacingRight=4;overflow=hidden;points=[[0,0.5],[1,0.5]];portConstraint=eastwest;rotatable=0;whiteSpace=wrap;html=1;" vertex="1" parent="1">
          <mxGeometry x="177.5" y="257.12" width="160" height="90" as="geometry" />
        </mxCell>
        <mxCell id="4qMBwd5joX9XYVFzXBw5-55" value="&lt;h5&gt;&lt;span style=&quot;font-size: 14px;&quot;&gt;Transformations&lt;span style=&quot;font-weight: normal;&quot;&gt;:&amp;nbsp;&lt;/span&gt;&lt;br&gt;&lt;ul&gt;&lt;li&gt;&lt;span style=&quot;font-weight: normal; font-size: 14px;&quot;&gt;Data Cleaning&lt;/span&gt;&lt;/li&gt;&lt;li&gt;&lt;span style=&quot;font-weight: normal; font-size: 14px;&quot;&gt;Data Standarization&lt;/span&gt;&lt;/li&gt;&lt;li&gt;&lt;span style=&quot;font-weight: normal; font-size: 14px;&quot;&gt;Data Normalization&lt;/span&gt;&lt;/li&gt;&lt;li&gt;&lt;span style=&quot;font-weight: normal; font-size: 14px;&quot;&gt;Derieved Columns&lt;/span&gt;&lt;/li&gt;&lt;li&gt;&lt;span style=&quot;font-weight: normal; font-size: 14px;&quot;&gt;Data Enrichment&lt;/span&gt;&lt;/li&gt;&lt;/ul&gt;&lt;/span&gt;&lt;/h5&gt;" style="text;strokeColor=none;fillColor=none;align=left;verticalAlign=middle;spacingLeft=4;spacingRight=4;overflow=hidden;points=[[0,0.5],[1,0.5]];portConstraint=eastwest;rotatable=0;whiteSpace=wrap;html=1;" vertex="1" parent="1">
          <mxGeometry x="171.25" y="333.56" width="188.75" height="156.44" as="geometry" />
        </mxCell>
        <mxCell id="4qMBwd5joX9XYVFzXBw5-56" value="&lt;b&gt;&lt;font style=&quot;font-size: 14px;&quot;&gt;Data Model :None(as is)&lt;/font&gt;&lt;/b&gt;" style="text;strokeColor=none;fillColor=none;align=left;verticalAlign=middle;spacingLeft=4;spacingRight=4;overflow=hidden;points=[[0,0.5],[1,0.5]];portConstraint=eastwest;rotatable=0;whiteSpace=wrap;html=1;" vertex="1" parent="1">
          <mxGeometry x="171.25" y="500" width="175" height="30" as="geometry" />
        </mxCell>
        <mxCell id="4qMBwd5joX9XYVFzXBw5-57" value="&lt;b&gt;&lt;font style=&quot;font-size: 14px;&quot;&gt;Object Type :Views&lt;/font&gt;&lt;/b&gt;" style="text;strokeColor=none;fillColor=none;align=left;verticalAlign=middle;spacingLeft=4;spacingRight=4;overflow=hidden;points=[[0,0.5],[1,0.5]];portConstraint=eastwest;rotatable=0;whiteSpace=wrap;html=1;" vertex="1" parent="1">
          <mxGeometry x="410" y="227.49999999999997" width="140" height="30" as="geometry" />
        </mxCell>
        <mxCell id="4qMBwd5joX9XYVFzXBw5-58" value="&lt;font style=&quot;font-size: 14px;&quot;&gt;&lt;b&gt;Load : &lt;/b&gt;No Load&lt;/font&gt;&lt;div style=&quot;text-align: center;&quot;&gt;&lt;span style=&quot;font-size: 14px;&quot;&gt;&lt;br&gt;&lt;/span&gt;&lt;/div&gt;" style="text;strokeColor=none;fillColor=none;align=left;verticalAlign=middle;spacingLeft=4;spacingRight=4;overflow=hidden;points=[[0,0.5],[1,0.5]];portConstraint=eastwest;rotatable=0;whiteSpace=wrap;html=1;" vertex="1" parent="1">
          <mxGeometry x="405" y="260" width="145" height="20" as="geometry" />
        </mxCell>
        <mxCell id="4qMBwd5joX9XYVFzXBw5-59" value="&lt;h5&gt;&lt;span style=&quot;font-size: 14px;&quot;&gt;Transformations&lt;span style=&quot;font-weight: normal;&quot;&gt;:&amp;nbsp;&lt;/span&gt;&lt;br&gt;&lt;ul&gt;&lt;li&gt;&lt;span style=&quot;font-weight: normal; font-size: 14px;&quot;&gt;Data Integration&lt;/span&gt;&lt;/li&gt;&lt;li&gt;&lt;span style=&quot;font-weight: normal; font-size: 14px;&quot;&gt;&amp;nbsp;Aggregations&lt;/span&gt;&lt;/li&gt;&lt;li&gt;&lt;span style=&quot;font-weight: 400;&quot;&gt;Bussiness Logics&lt;/span&gt;&lt;/li&gt;&lt;/ul&gt;&lt;/span&gt;&lt;/h5&gt;" style="text;strokeColor=none;fillColor=none;align=left;verticalAlign=middle;spacingLeft=4;spacingRight=4;overflow=hidden;points=[[0,0.5],[1,0.5]];portConstraint=eastwest;rotatable=0;whiteSpace=wrap;html=1;" vertex="1" parent="1">
          <mxGeometry x="403.75" y="270" width="156.25" height="120" as="geometry" />
        </mxCell>
        <mxCell id="4qMBwd5joX9XYVFzXBw5-60" value="&lt;b&gt;&lt;font style=&quot;font-size: 14px;&quot;&gt;Data Model :&amp;nbsp;&lt;/font&gt;&lt;/b&gt;&lt;div&gt;&lt;ul&gt;&lt;li&gt;&lt;span style=&quot;font-size: 14px;&quot;&gt;&lt;b&gt;Flat Table&lt;/b&gt;&lt;/span&gt;&lt;/li&gt;&lt;li&gt;&lt;span style=&quot;font-size: 14px;&quot;&gt;&lt;b&gt;Star Schema&lt;/b&gt;&lt;/span&gt;&lt;/li&gt;&lt;li&gt;&lt;span style=&quot;font-size: 14px;&quot;&gt;&lt;b&gt;Aggregated Tables&lt;/b&gt;&lt;/span&gt;&lt;/li&gt;&lt;/ul&gt;&lt;/div&gt;&lt;div&gt;&lt;span style=&quot;font-size: 14px;&quot;&gt;&lt;b&gt;&lt;br&gt;&lt;/b&gt;&lt;/span&gt;&lt;/div&gt;" style="text;strokeColor=none;fillColor=none;align=left;verticalAlign=middle;spacingLeft=4;spacingRight=4;overflow=hidden;points=[[0,0.5],[1,0.5]];portConstraint=eastwest;rotatable=0;whiteSpace=wrap;html=1;" vertex="1" parent="1">
          <mxGeometry x="390" y="410" width="179.38" height="100" as="geometry" />
        </mxCell>
        <mxCell id="4qMBwd5joX9XYVFzXBw5-61" value="" style="image;aspect=fixed;html=1;points=[];align=center;fontSize=12;image=img/lib/azure2/analytics/Power_BI_Embedded.svg;" vertex="1" parent="1">
          <mxGeometry x="689.5" y="61.1" width="51" height="68" as="geometry" />
        </mxCell>
        <mxCell id="4qMBwd5joX9XYVFzXBw5-62" value="" style="image;aspect=fixed;html=1;points=[];align=center;fontSize=12;image=img/lib/azure2/databases/SQL_Server.svg;" vertex="1" parent="1">
          <mxGeometry x="-65" y="-148" width="68" height="68" as="geometry" />
        </mxCell>
        <mxCell id="4qMBwd5joX9XYVFzXBw5-63" value="" style="sketch=0;points=[[0,0,0],[0.25,0,0],[0.5,0,0],[0.75,0,0],[1,0,0],[0,1,0],[0.25,1,0],[0.5,1,0],[0.75,1,0],[1,1,0],[0,0.25,0],[0,0.5,0],[0,0.75,0],[1,0.25,0],[1,0.5,0],[1,0.75,0]];outlineConnect=0;fontColor=#232F3E;fillColor=#01A88D;strokeColor=#ffffff;dashed=0;verticalLabelPosition=bottom;verticalAlign=top;align=center;html=1;fontSize=12;fontStyle=0;aspect=fixed;shape=mxgraph.aws4.resourceIcon;resIcon=mxgraph.aws4.augmented_ai;" vertex="1" parent="1">
          <mxGeometry x="689.5" y="376" width="78" height="78" as="geometry" />
        </mxCell>
        <mxCell id="4qMBwd5joX9XYVFzXBw5-64" value="" style="editableCssRules=.*;html=1;shape=image;verticalLabelPosition=bottom;labelBackgroundColor=#ffffff;verticalAlign=top;aspect=fixed;imageAspect=0;image=data:image/svg+xml,PHN2ZyB4bWxucz0iaHR0cDovL3d3dy53My5vcmcvMjAwMC9zdmciIHhtbG5zOnY9Imh0dHBzOi8vdmVjdGEuaW8vbmFubyIgd2lkdGg9IjE0LjY1OTk5OTg0NzQxMjExIiBoZWlnaHQ9IjIwIiB2aWV3Qm94PSIwIDAgMTQuNjU5OTk5ODQ3NDEyMTEgMjAiPiYjeGE7CTxzdHlsZSB0eXBlPSJ0ZXh0L2NzcyI+JiN4YTsJLnN0MHtmaWxsOiM0Mjg1ZjQ7fSYjeGE7CS5zdDF7ZmlsbDojNjY5ZGY2O30mI3hhOwkuc3Qye2ZpbGw6I2FlY2JmYTt9JiN4YTsJPC9zdHlsZT4mI3hhOwk8c3R5bGU+JiN4YTsJCS5Ee2ZpbGwtcnVsZTpldmVub2RkfSYjeGE7CTwvc3R5bGU+JiN4YTsJPHBhdGggZD0iTTcuMzMgMTUuMzV2LTMuMDFMMCA4LjQ0djMuMDF6bTAgNC42NXYtMy4wMUwwIDEzLjA5djMuMDF6IiBjbGFzcz0ic3QyIEQiLz4mI3hhOwk8cGF0aCBkPSJNMTQuNjYgOC40NGwtNy4zMyAzLjl2My4wMWw3LjMzLTMuOXptMCA0LjY1bC03LjMzIDMuOVYyMGw3LjMzLTMuOXoiIGNsYXNzPSJzdDEgRCIvPiYjeGE7CTxwYXRoIGQ9Ik03LjMzIDB2My4wMWw3LjMzIDMuOVYzLjl6IiBjbGFzcz0ic3QwIEQiLz4mI3hhOwk8cGF0aCBkPSJNMCA2LjkxbDcuMzMtMy45VjBMMCAzLjl6IiBjbGFzcz0iRCBzdDEiLz4mI3hhOwk8cGF0aCBkPSJNNy4zMyAxMC43OVY3Ljc3TDAgMy44N3YzLjAyeiIgY2xhc3M9IkQgc3QyIi8+JiN4YTsJPHBhdGggZD0iTTE0LjY2IDMuODdsLTcuMzMgMy45djMuMDJsNy4zMy0zLjl6IiBjbGFzcz0iRCBzdDEiLz4mI3hhOzwvc3ZnPg==;" vertex="1" parent="1">
          <mxGeometry x="689.75" y="220" width="60.5" height="80.67" as="geometry" />
        </mxCell>
        <mxCell id="4qMBwd5joX9XYVFzXBw5-65" value="&lt;font style=&quot;font-size: 17px;&quot;&gt;Business Presentations&lt;/font&gt;" style="text;strokeColor=none;fillColor=none;align=left;verticalAlign=middle;spacingLeft=4;spacingRight=4;overflow=hidden;points=[[0,0.5],[1,0.5]];portConstraint=eastwest;rotatable=0;whiteSpace=wrap;html=1;" vertex="1" parent="1">
          <mxGeometry x="675" y="140" width="115" height="50" as="geometry" />
        </mxCell>
        <mxCell id="4qMBwd5joX9XYVFzXBw5-66" value="&lt;font style=&quot;font-size: 17px;&quot;&gt;Additional Filter Queries&lt;/font&gt;" style="text;strokeColor=none;fillColor=none;align=left;verticalAlign=middle;spacingLeft=4;spacingRight=4;overflow=hidden;points=[[0,0.5],[1,0.5]];portConstraint=eastwest;rotatable=0;whiteSpace=wrap;html=1;" vertex="1" parent="1">
          <mxGeometry x="660" y="297.12" width="126" height="50" as="geometry" />
        </mxCell>
        <mxCell id="4qMBwd5joX9XYVFzXBw5-67" value="&lt;font style=&quot;font-size: 17px;&quot;&gt;Machine Learning Algorithms&lt;/font&gt;" style="text;strokeColor=none;fillColor=none;align=left;verticalAlign=middle;spacingLeft=4;spacingRight=4;overflow=hidden;points=[[0,0.5],[1,0.5]];portConstraint=eastwest;rotatable=0;whiteSpace=wrap;html=1;" vertex="1" parent="1">
          <mxGeometry x="675" y="454" width="115" height="76" as="geometry" />
        </mxCell>
      </root>
    </mxGraphModel>
  </diagram>
</mxfile>
